<?xml version="1.0" encoding="UTF-8"?>
<!DOCTYPE svg PUBLIC "-//W3C//DTD SVG 1.1//EN" "http://www.w3.org/Graphics/SVG/1.1/DTD/svg11.dtd">
<!-- Creator: CorelDRAW 2021 (64-Bit) -->
<svg xmlns="http://www.w3.org/2000/svg" xml:space="preserve" width="11.6929in" height="8.26772in" version="1.1" style="shape-rendering:geometricPrecision; text-rendering:geometricPrecision; image-rendering:optimizeQuality; fill-rule:evenodd; clip-rule:evenodd"
viewBox="0 0 11692.91 8267.72"
 xmlns:xlink="http://www.w3.org/1999/xlink"
 xmlns:xodm="http://www.corel.com/coreldraw/odm/2003">
 <defs>
  <style type="text/css">
   <![CDATA[
    .fil0 {fill:white}
    .fil1 {fill:white;fill-rule:nonzero}
   ]]>
  </style>
 </defs>
 <g id="Camada_x0020_1">
  <metadata id="CorelCorpID_0Corel-Layer"/>
  <path class="fil0" d="M2799.87 594.46l3048.99 0 29.48 0 3049 0 0 5387.81c0,328.73 -94.82,455.83 -439.7,655.04 -712.24,411.43 -1597.93,781.61 -2609.3,1016.39l0 1.57 -10.88 2.72 -3.85 -0.89 -3.87 0.89 -10.88 -2.72 0 -1.57c-1011.37,-234.78 -1897.04,-604.96 -2609.28,-1016.39 -344.89,-199.21 -439.71,-326.31 -439.71,-655.04l0 -5387.81zm260.77 207.48l2789.48 0 26.96 0 2789.48 0 0 5116.72c0,300.78 -86.74,417.05 -402.28,599.31 -651.61,376.41 -1461.92,715.07 -2387.21,929.87l0 1.44 -9.94 2.49 -3.52 -0.82 -3.54 0.82 -9.94 -2.49 0 -1.44c-925.29,-214.79 -1735.59,-553.46 -2387.2,-929.87 -315.53,-182.26 -402.28,-298.53 -402.28,-599.31l0 -5116.72z"/>
  <path class="fil0" d="M8543.39 6020.69c-30.94,182.21 -132.67,281.7 -375.14,421.76 -625.55,361.35 -1403.43,686.46 -2291.71,892.67l0 1.38 -9.55 2.39 -3.38 -0.79 -3.39 0.79 -9.55 -2.39 0 -1.38c-888.28,-206.21 -1666.16,-531.32 -2291.71,-892.67 -242.48,-140.06 -344.2,-239.56 -375.14,-421.76 62.14,65.86 152.24,126.21 279.67,196.89 651.45,361.35 1461.57,686.47 2386.65,892.68l0 1.38 9.94 2.39 3.54 -0.78 3.52 0.78 9.94 -2.39 0 -1.38c925.08,-206.21 1735.19,-531.32 2386.65,-892.68 127.44,-70.68 217.54,-131.03 279.67,-196.89z"/>
  <path class="fil1" d="M6125.13 1513.59l-64.56 134.76 -958.64 0c-68.89,-1.06 -141.09,2.46 -216.07,2.46 -287.3,0 -515.24,66.91 -683.66,231.45 -168.45,164.54 -204.88,265.5 -204.88,497.28 0,153.88 38.96,288.27 117.84,404.18 79.87,114.9 244.44,222.04 495.72,320.4 431.43,145.11 726.51,253.2 885.25,327.23 159.72,73.04 312.62,196.71 459.68,372.01 148.02,175.31 221.08,399.3 221.08,672.96 0,114.92 -12.66,223.03 -39.93,327.23 -26.3,103.23 -69.72,203.19 -128.56,298.99 -58.98,96.05 152.15,254.56 69.43,333.38 -82.71,78.82 -38.3,112.61 -123.93,153.44 -165.11,78.75 -278.91,79.98 -1180.39,79.98l-1121.92 0 0 -1221.26 42.85 0c3.89,405.13 99.33,687.57 285.35,847.28 186.98,159.71 477.2,239.58 870.64,239.58 357.42,0 629.14,-84.73 814.18,-253.22 186.02,-169.46 278.52,-373 278.52,-610.62 0,-145.11 -32.13,-267.82 -97.37,-370.08 -64.28,-101.28 -154.85,-190.88 -270.74,-267.83 -115.89,-76.93 -336,-170.43 -659.32,-281.44 -321.37,-112 -547.32,-210.37 -677.82,-295.09 -129.52,-84.73 -238.61,-212.3 -326.26,-382.72 -87.65,-169.46 -131.47,-343.79 -131.47,-520.06 0,-325.28 64.41,-500.47 287.65,-721.28 206.35,-204.11 471.93,-313.37 796.94,-329.12l901.31 0c130.26,4.13 261.3,10.11 359.09,10.11z"/>
  <path class="fil1" d="M5632.75 1552.3l0 -42.3 2625.35 0 0 486.6 -42.32 0 0 -19.23c-3.85,-3.85 -5.76,-9.62 -5.76,-17.31 -37.51,-142.33 -89.45,-229.83 -157.72,-261.57 -67.31,-31.75 -170.21,-48.1 -309.67,-48.1l-1337.66 0 0 1828.13 1247.28 0c107.71,0 180.78,-7.69 220.22,-25 39.42,-17.32 61.53,-54.82 67.31,-112.52l39.42 0 0 397.15 -39.42 0c0,-96.16 -61.55,-143.27 -185.61,-143.27l-1349.2 0 0 1655.97c0,155.79 23.07,256.78 71.15,301.96 48.1,45.2 130.79,67.33 247.16,67.33l0 39.42 -1090.54 0 0 -39.42c127.91,0 208.68,-24.06 242.33,-73.09 33.66,-49.04 50.01,-117.32 50.01,-205.8l0 -3414.86c0,-138.48 -19.23,-235.62 -58.65,-291.39 -39.44,-55.77 -117.32,-82.71 -233.69,-82.71z"/>
 </g>
</svg>
